<svg xmlns="http://www.w3.org/2000/svg" viewBox="0 0 200 200" width="200" height="200">
  <!-- Background -->
  <rect width="100%" height="100%" fill="black"/>
  
  <!-- Circuit lines -->
  <g stroke="#00FF00" stroke-width="0.5">
    <line x1="10" y1="10" x2="190" y2="10"/>
    <line x1="10" y1="20" x2="190" y2="20"/>
    <line x1="10" y1="30" x2="190" y2="30"/>
    <line x1="10" y1="170" x2="190" y2="170"/>
    <line x1="10" y1="180" x2="190" y2="180"/>
    <line x1="10" y1="190" x2="190" y2="190"/>
  </g>

  <!-- AI Robot Body -->
  <circle id="body" cx="100" cy="100" r="40" fill="#333333" stroke="#00FF00" stroke-width="2"/>

  <!-- Eyes with animation -->
  <circle id="left-eye" cx="85" cy="90" r="5" fill="#00FF00">
    <animate attributeName="fill" values="#00FF00;#333333;#00FF00" dur="1s" repeatCount="indefinite"/>
  </circle>
  <circle id="right-eye" cx="115" cy="90" r="5" fill="#00FF00">
    <animate attributeName="fill" values="#00FF00;#333333;#00FF00" dur="1s" repeatCount="indefinite"/>
  </circle>

  <!-- Mouth -->
  <line x1="85" y1="110" x2="115" y2="110" stroke="#00FF00" stroke-width="2"/>

  <!-- Arms with interactive animation -->
  <line id="left-arm" x1="60" y1="100" x2="30" y2="70" stroke="#00FF00" stroke-width="3">
    <animate attributeName="x2" values="30; 10; 30" dur="0.5s" begin="click" repeatCount="1"/>
    <animate attributeName="y2" values="70; 50; 70" dur="0.5s" begin="click" repeatCount="1"/>
  </line>
  <line id="right-arm" x1="140" y1="100" x2="170" y2="70" stroke="#00FF00" stroke-width="3">
    <animate attributeName="x2" values="170; 190; 170" dur="0.5s" begin="click" repeatCount="1"/>
    <animate attributeName="y2" values="70; 50; 70" dur="0.5s" begin="click" repeatCount="1"/>
  </line>

  <!-- Legs with interactive animation -->
  <line id="left-leg" x1="80" y1="140" x2="60" y2="170" stroke="#00FF00" stroke-width="3">
    <animate attributeName="x2" values="60; 40; 60" dur="0.5s" begin="click" repeatCount="1"/>
    <animate attributeName="y2" values="170; 190; 170" dur="0.5s" begin="click" repeatCount="1"/>
  </line>
  <line id="right-leg" x1="120" y1="140" x2="140" y2="170" stroke="#00FF00" stroke-width="3">
    <animate attributeName="x2" values="140; 160; 140" dur="0.5s" begin="click" repeatCount="1"/>
    <animate attributeName="y2" values="170; 190; 170" dur="0.5s" begin="click" repeatCount="1"/>
  </line>

  <!-- Neural Network Patterns -->
  <g stroke="#00FF00" stroke-width="1">
    <circle cx="50" cy="50" r="5" fill="none"/>
    <circle cx="150" cy="50" r="5" fill="none"/>
    <circle cx="100" cy="150" r="5" fill="none"/>
    <line x1="50" y1="50" x2="100" y2="100"/>
    <line x1="150" y1="50" x2="100" y2="100"/>
    <line x1="100" y1="100" x2="100" y2="150"/>
  </g>

  <!-- Action Lines -->
  <g stroke="#00FF00" stroke-width="0.5">
    <line x1="30" y1="70" x2="20" y2="60"/>
    <line x1="170" y1="70" x2="180" y2="60"/>
    <line x1="60" y1="170" x2="50" y2="180"/>
    <line x1="140" y1="170" x2="150" y2="180"/>
  </g>
</svg>
